<svg xmlns="http://www.w3.org/2000/svg" viewBox="0 0 960 540">
  <defs>
    <linearGradient id="bg" x1="0" x2="1" y1="0" y2="1"><stop stop-color="#141821"/><stop offset=".55" stop-color="#202b36"/><stop offset="1" stop-color="#111318"/></linearGradient>
    <radialGradient id="fire" cx=".52" cy=".58" r=".42"><stop stop-color="#f4b35f" stop-opacity=".9"/><stop offset=".45" stop-color="#b75b2b" stop-opacity=".22"/><stop offset="1" stop-color="#0c0f14" stop-opacity="0"/></radialGradient>
    <filter id="soft"><feGaussianBlur stdDeviation="8"/></filter>
  </defs>
  <rect width="960" height="540" fill="url(#bg)"/>
  <path d="M0 430h960v110H0z" fill="#0e1117"/>
  <path d="M64 84h832v330H64z" rx="30" fill="#1a2430" stroke="#4c6274" stroke-width="3"/>
  <path d="M112 132h736v228H112z" rx="18" fill="#131b24" stroke="#c79245" stroke-width="5"/>
  <ellipse cx="480" cy="298" rx="330" ry="128" fill="url(#fire)" filter="url(#soft)"/>
  <path d="M214 112h532l-56 56H270z" fill="#2d3c49"/>
  <path d="M298 372h364v32H298z" rx="16" fill="#c79245"/>
  <path d="M188 400h584v18H188z" rx="9" fill="#513a24"/>
  <g fill="#dba866">
    <circle cx="158" cy="148" r="10"/><circle cx="802" cy="148" r="10"/>
    <path d="M151 158h14v88h-14zM795 158h14v88h-14z"/>
  </g>
  <g stroke="#506a7d" stroke-width="3" opacity=".65">
    <path d="M126 270h708M126 315h708M230 132v228M730 132v228"/>
  </g>
  <path d="M405 285c42-54 48-102 76-142 30 51 84 93 52 160-24 51-97 48-128-18z" fill="#e47d35"/>
  <path d="M442 292c26-34 31-65 49-91 19 34 53 60 33 103-15 32-62 30-82-12z" fill="#ffd36f"/>
  <text x="480" y="82" text-anchor="middle" font-family="serif" font-size="38" fill="#f5ead9">ASHFORGE OUTFITTER</text>
</svg>
